<svg xmlns="http://www.w3.org/2000/svg" viewBox="0 0 128 128">
  <!-- Background -->
  <rect width="128" height="128" fill="#9333EA" rx="6.4"/>
  
  <!-- Robot Head -->
  <g transform="translate(32, 32) scale(0.32)">
    <!-- Main head shape -->
    <rect x="0" y="0" width="200" height="200" rx="40" fill="#3B82F6"/>
    
    <!-- Antenna Base -->
    <rect x="90" y="-30" width="20" height="30" fill="#38BDF8"/>
    
    <!-- All-Seeing Eye -->
    <g transform="translate(100, -40)">
      <!-- Outer glow -->
      <circle cx="0" cy="0" r="25" fill="#FDE047" opacity="0.2"/>
      <!-- Eye shape -->
      <ellipse cx="0" cy="0" rx="20" ry="15" fill="white"/>
      <!-- Iris -->
      <circle cx="0" cy="0" r="10" fill="#38BDF8"/>
      <!-- Pupil -->
      <circle cx="0" cy="0" r="5" fill="#1E293B"/>
      <!-- Light reflection -->
      <circle cx="-3" cy="-3" r="2" fill="white"/>
    </g>
    
    <!-- Eyes -->
    <circle cx="60" cy="80" r="25" fill="white"/>
    <circle cx="140" cy="80" r="25" fill="white"/>
    <circle cx="60" cy="80" r="15" fill="#1E293B"/>
    <circle cx="140" cy="80" r="15" fill="#1E293B"/>
    
    <!-- Smile -->
    <path d="M60 140 Q100 170 140 140" fill="none" stroke="white" stroke-width="10" stroke-linecap="round"/>
  </g>
  
  <!-- Radiating Context Lines -->
  <g transform="translate(64, 19.2) scale(0.32)">
    <path d="M-80 -40 L-60 -30" stroke="#FDE047" stroke-width="3" stroke-linecap="round"/>
    <path d="M-40 -50 L-30 -35" stroke="#FDE047" stroke-width="3" stroke-linecap="round"/>
    <path d="M0 -55 L0 -40" stroke="#FDE047" stroke-width="3" stroke-linecap="round"/>
    <path d="M40 -50 L30 -35" stroke="#FDE047" stroke-width="3" stroke-linecap="round"/>
    <path d="M80 -40 L60 -30" stroke="#FDE047" stroke-width="3" stroke-linecap="round"/>
  </g>
  
  <!-- Small Files around the eye -->
  <g transform="translate(48, 9.6) rotate(-15) scale(0.32)">
    <rect width="30" height="40" fill="white" rx="4"/>
    <line x1="8" y1="12" x2="22" y2="12" stroke="#3B82F6" stroke-width="2"/>
    <line x1="8" y1="20" x2="22" y2="20" stroke="#3B82F6" stroke-width="2"/>
    <line x1="8" y1="28" x2="22" y2="28" stroke="#3B82F6" stroke-width="2"/>
  </g>
  
  <g transform="translate(80, 12.8) rotate(15) scale(0.32)">
    <rect width="30" height="40" fill="white" rx="4"/>
    <line x1="8" y1="12" x2="22" y2="12" stroke="#3B82F6" stroke-width="2"/>
    <line x1="8" y1="20" x2="22" y2="20" stroke="#3B82F6" stroke-width="2"/>
    <line x1="8" y1="28" x2="22" y2="28" stroke="#3B82F6" stroke-width="2"/>
  </g>
</svg>